<?xml version="1.0" encoding="UTF-8"?>
<!DOCTYPE svg PUBLIC "-//W3C//DTD SVG 1.1//EN" "http://www.w3.org/Graphics/SVG/1.1/DTD/svg11.dtd">
<svg xmlns="http://www.w3.org/2000/svg" version="1.1" width="512px" height="512px" style="shape-rendering:geometricPrecision; text-rendering:geometricPrecision; image-rendering:optimizeQuality; fill-rule:evenodd; clip-rule:evenodd" xmlns:xlink="http://www.w3.org/1999/xlink">
<g><path style="opacity:0.961" fill="#000000" d="M 92.5,41.5 C 96.1309,41.1604 99.4642,41.9937 102.5,44C 117.333,58.8333 132.167,73.6667 147,88.5C 150.777,94.6752 149.943,100.175 144.5,105C 139.673,107.147 135.006,106.814 130.5,104C 122.667,96.1667 114.833,88.3333 107,80.5C 106.5,117.498 106.333,154.498 106.5,191.5C 112.29,191.096 117.956,191.596 123.5,193C 127.305,197.091 128.472,201.924 127,207.5C 125.833,209.333 124.333,210.833 122.5,212C 117.264,213.339 111.93,213.839 106.5,213.5C 106.5,227.5 106.5,241.5 106.5,255.5C 112.29,255.096 117.956,255.596 123.5,257C 127.305,261.091 128.472,265.924 127,271.5C 125.833,273.333 124.333,274.833 122.5,276C 117.264,277.339 111.93,277.839 106.5,277.5C 106.5,291.5 106.5,305.5 106.5,319.5C 112.29,319.096 117.956,319.596 123.5,321C 127.305,325.091 128.472,329.924 127,335.5C 125.833,337.333 124.333,338.833 122.5,340C 117.264,341.339 111.93,341.839 106.5,341.5C 106.5,355.5 106.5,369.5 106.5,383.5C 120.5,383.5 134.5,383.5 148.5,383.5C 148.334,378.489 148.501,373.489 149,368.5C 154.873,360.077 161.54,359.411 169,366.5C 170.404,372.044 170.904,377.71 170.5,383.5C 184.5,383.5 198.5,383.5 212.5,383.5C 212.334,378.489 212.501,373.489 213,368.5C 218.873,360.077 225.54,359.411 233,366.5C 234.404,372.044 234.904,377.71 234.5,383.5C 248.5,383.5 262.5,383.5 276.5,383.5C 276.334,378.489 276.501,373.489 277,368.5C 282.873,360.077 289.54,359.411 297,366.5C 298.404,372.044 298.904,377.71 298.5,383.5C 335.502,383.667 372.502,383.5 409.5,383C 400.636,374.47 392.136,365.637 384,356.5C 382.056,343.22 387.556,338.387 400.5,342C 415.667,357.167 430.833,372.333 446,387.5C 448.243,392.725 447.909,397.725 445,402.5C 430.138,417.696 414.971,432.529 399.5,447C 387.503,449.334 382.336,444.501 384,432.5C 391.463,422.703 399.963,413.87 409.5,406C 372.502,405.5 335.502,405.333 298.5,405.5C 298.897,410.959 298.397,416.292 297,421.5C 290.667,428.167 284.333,428.167 278,421.5C 276.603,416.292 276.103,410.959 276.5,405.5C 262.5,405.5 248.5,405.5 234.5,405.5C 234.897,410.959 234.397,416.292 233,421.5C 226.667,428.167 220.333,428.167 214,421.5C 212.603,416.292 212.103,410.959 212.5,405.5C 198.5,405.5 184.5,405.5 170.5,405.5C 170.897,410.959 170.397,416.292 169,421.5C 162.667,428.167 156.333,428.167 150,421.5C 148.603,416.292 148.103,410.959 148.5,405.5C 134.5,405.5 120.5,405.5 106.5,405.5C 106.667,417.171 106.5,428.838 106,440.5C 104.428,445.704 100.928,448.037 95.5,447.5C 90.0721,448.037 86.5721,445.704 85,440.5C 84.5001,428.838 84.3335,417.171 84.5,405.5C 72.8286,405.667 61.1619,405.5 49.5,405C 42.2,401.562 40.0334,396.062 43,388.5C 44.5429,386.622 46.3762,385.122 48.5,384C 60.4954,383.5 72.4954,383.333 84.5,383.5C 84.5,369.5 84.5,355.5 84.5,341.5C 79.0698,341.839 73.7364,341.339 68.5,340C 63.7255,336.345 62.2255,331.512 64,325.5C 64.7845,323.714 65.9512,322.214 67.5,321C 73.0438,319.596 78.7104,319.096 84.5,319.5C 84.5,305.5 84.5,291.5 84.5,277.5C 79.0698,277.839 73.7364,277.339 68.5,276C 63.7255,272.345 62.2255,267.512 64,261.5C 64.7845,259.714 65.9512,258.214 67.5,257C 73.0438,255.596 78.7104,255.096 84.5,255.5C 84.5,241.5 84.5,227.5 84.5,213.5C 79.0698,213.839 73.7364,213.339 68.5,212C 63.7255,208.345 62.2255,203.512 64,197.5C 64.7845,195.714 65.9512,194.214 67.5,193C 73.0438,191.596 78.7104,191.096 84.5,191.5C 84.6667,154.498 84.5,117.498 84,80.5C 75.4348,89.735 66.2681,98.235 56.5,106C 43.3885,106.555 39.2218,100.722 44,88.5C 59.7579,72.2394 75.9246,56.5728 92.5,41.5 Z"/></g>
</svg>
