<?xml version="1.0" encoding="UTF-8"?>
<!DOCTYPE svg PUBLIC "-//W3C//DTD SVG 1.1//EN" "http://www.w3.org/Graphics/SVG/1.1/DTD/svg11.dtd">
<svg xmlns="http://www.w3.org/2000/svg" version="1.1" width="512px" height="512px" style="shape-rendering:geometricPrecision; text-rendering:geometricPrecision; image-rendering:optimizeQuality; fill-rule:evenodd; clip-rule:evenodd" xmlns:xlink="http://www.w3.org/1999/xlink">
<g><path style="opacity:0.972" fill="#000000" d="M 96.5,63.5 C 120.366,60.5097 137.2,69.843 147,91.5C 153.576,117.511 144.743,136.011 120.5,147C 102.144,152.286 86.311,148.12 73,134.5C 62.3296,119.138 60.6629,102.804 68,85.5C 74.5258,74.1211 84.0258,66.7878 96.5,63.5 Z"/></g>
<g><path style="opacity:0.974" fill="#000000" d="M 246.5,63.5 C 273.619,60.8175 290.785,72.4841 298,98.5C 300.475,123.342 289.975,139.842 266.5,148C 240.981,152.326 223.481,142.493 214,118.5C 208.965,90.5455 219.798,72.2122 246.5,63.5 Z"/></g>
<g><path style="opacity:0.972" fill="#000000" d="M 395.5,63.5 C 419.572,60.7692 436.406,70.4358 446,92.5C 451.709,117.913 442.876,136.08 419.5,147C 393.489,153.576 374.989,144.743 364,120.5C 358.714,102.144 362.88,86.311 376.5,73C 382.378,68.7274 388.712,65.5607 395.5,63.5 Z"/></g>
<g><path style="opacity:0.974" fill="#000000" d="M 98.5,212.5 C 123.32,210.513 139.82,221.18 148,244.5C 152.326,270.019 142.493,287.519 118.5,297C 90.6328,302.158 72.4662,291.325 64,264.5C 61.024,237.346 72.524,220.013 98.5,212.5 Z"/></g>
<g><path style="opacity:0.971" fill="#000000" d="M 247.5,212.5 C 282.307,211.807 299.14,228.807 298,263.5C 290.864,288.997 274.031,300.497 247.5,298C 222.003,290.864 210.503,274.031 213,247.5C 217.348,228.653 228.848,216.986 247.5,212.5 Z"/></g>
<g><path style="opacity:0.974" fill="#000000" d="M 397.5,212.5 C 423.178,210.703 439.678,222.036 447,246.5C 450.17,273.64 438.67,290.806 412.5,298C 387.658,300.475 371.158,289.975 363,266.5C 358.953,238.409 370.453,220.409 397.5,212.5 Z"/></g>
<g><path style="opacity:0.972" fill="#000000" d="M 100.5,361.5 C 127.183,360.908 143.35,373.575 149,399.5C 148.335,433.828 130.835,449.661 96.5,447C 68.2881,437.08 58.1214,417.58 66,388.5C 72.9949,373.664 84.4949,364.664 100.5,361.5 Z"/></g>
<g><path style="opacity:0.974" fill="#000000" d="M 250.5,361.5 C 276.003,360.845 291.836,372.845 298,397.5C 300.283,423.201 289.116,439.701 264.5,447C 237.36,450.17 220.194,438.67 213,412.5C 210.926,384.609 223.426,367.609 250.5,361.5 Z"/></g>
<g><path style="opacity:0.972" fill="#000000" d="M 399.5,361.5 C 433.8,362.633 449.634,380.3 447,414.5C 437.08,442.712 417.58,452.879 388.5,445C 369.505,435.854 360.672,420.687 362,399.5C 366.013,378.321 378.513,365.654 399.5,361.5 Z"/></g>
</svg>
