<?xml version="1.0" encoding="UTF-8"?>
<!DOCTYPE svg PUBLIC "-//W3C//DTD SVG 1.1//EN" "http://www.w3.org/Graphics/SVG/1.1/DTD/svg11.dtd">
<svg xmlns="http://www.w3.org/2000/svg" version="1.1" width="512px" height="512px" style="shape-rendering:geometricPrecision; text-rendering:geometricPrecision; image-rendering:optimizeQuality; fill-rule:evenodd; clip-rule:evenodd" xmlns:xlink="http://www.w3.org/1999/xlink">
<g><path style="opacity:0.972" fill="#000000" d="M 274.5,63.5 C 293.256,60.2819 305.423,67.6153 311,85.5C 311.667,92.8333 311.667,100.167 311,107.5C 308.23,123.809 304.23,139.809 299,155.5C 284.592,198.393 269.592,241.06 254,283.5C 247.048,303.328 241.048,323.328 236,343.5C 263.105,319.064 289.605,293.897 315.5,268C 326.539,257.959 337.873,248.292 349.5,239C 358.24,232.464 367.907,227.797 378.5,225C 401.617,223.439 414.45,234.272 417,257.5C 417.719,272.748 416.052,287.748 412,302.5C 404.5,328.333 397,354.167 389.5,380C 389.667,380.5 389.833,381 390,381.5C 397.162,374.004 403.162,365.671 408,356.5C 416.731,346.908 426.897,345.075 438.5,351C 448.306,360.004 450.139,370.504 444,382.5C 434.646,398.687 422.813,412.854 408.5,425C 392.14,436.923 374.807,438.589 356.5,430C 348.822,424.489 344.322,416.989 343,407.5C 342.023,396 343.023,384.667 346,373.5C 352.392,349.323 359.392,325.323 367,301.5C 369.321,293.562 370.988,285.562 372,277.5C 362.073,285.882 352.24,294.382 342.5,303C 320.108,326.06 297.108,348.393 273.5,370C 264.117,377.717 254.451,385.051 244.5,392C 234.725,398.372 224.058,401.039 212.5,400C 199.563,396.73 191.73,388.563 189,375.5C 187.848,357.073 190.181,339.073 196,321.5C 202.597,299.71 209.597,278.043 217,256.5C 234.034,210.732 249.867,164.565 264.5,118C 264.167,117.833 263.833,117.667 263.5,117.5C 246.948,130.546 231.448,144.879 217,160.5C 171.133,213.854 132.466,272.187 101,335.5C 89.1332,344.889 77.7999,344.223 67,333.5C 63.165,326.152 62.4983,318.485 65,310.5C 99.3398,240.532 142.673,176.866 195,119.5C 211.705,102.45 229.872,87.2838 249.5,74C 257.509,69.3959 265.843,65.8959 274.5,63.5 Z"/></g>
</svg>
